<svg xmlns="http://www.w3.org/2000/svg" xmlns:xlink="http://www.w3.org/1999/xlink" width="433.733" height="164.592" viewBox="0 0 433.733 164.592">
  <defs>
    <clipPath id="clip-path">
      <rect id="Rectangle_66" data-name="Rectangle 66" width="95.749" height="130.984" fill="none"/>
    </clipPath>
    <clipPath id="clip-path-2">
      <circle id="Ellipse_10" data-name="Ellipse 10" cx="20.661" cy="20.661" r="20.661" fill="none"/>
    </clipPath>
    <linearGradient id="linear-gradient" x1="0.093" y1="0.756" x2="0.866" y2="0.333" gradientUnits="objectBoundingBox">
      <stop offset="0" stop-color="#f1ca65"/>
      <stop offset="1" stop-color="#fabb1e"/>
    </linearGradient>
    <linearGradient id="linear-gradient-2" x1="0.169" y1="0.211" x2="0.872" y2="0.757" gradientUnits="objectBoundingBox">
      <stop offset="0" stop-color="#f8bc1d"/>
      <stop offset="1" stop-color="#f1ca65"/>
    </linearGradient>
  </defs>
  <g id="logo_1_" data-name="logo (1)" transform="translate(0 49.82)">
    <g id="Group_111" data-name="Group 111" transform="translate(0 -16.213)" clip-path="url(#clip-path)">
      <path id="Path_136" data-name="Path 136" d="M93.845,38.59a47.617,47.617,0,0,0-4.508-10.55,48.322,48.322,0,0,0-2.662-4.123l-.167-.225a47.9,47.9,0,0,0-27.2-18.2c-.428-.105-.863-.2-1.295-.3a47.914,47.914,0,0,0-54.859,29.7A47.414,47.414,0,0,0,.91,42.7a48.168,48.168,0,0,0-.823,6.426h0v.018c-.025.45-.047.9-.062,1.342S0,51.493,0,51.99c0,.954.033,1.9.087,2.843V135.1l20.062-16.49V113.8L20.08,96.6l.069-8.265V51.99A27.724,27.724,0,0,1,45.892,24.341c.662-.048,1.318-.077,1.986-.077A27.729,27.729,0,1,1,33.038,75.4V97.521a47.889,47.889,0,0,0,39.084-4.239q1.044-.613,2.056-1.28l.5-.33A47.936,47.936,0,0,0,93.845,38.59" transform="translate(0 -4.116)" fill="#fff"/>
    </g>
    <circle id="Ellipse_8" data-name="Ellipse 8" cx="20.766" cy="20.766" r="20.766" transform="translate(27.696 10.998)" fill="none" stroke="#fff" stroke-miterlimit="10" stroke-width="1.98"/>
    <circle id="Ellipse_9" data-name="Ellipse 9" cx="20.766" cy="20.766" r="20.766" transform="translate(27.696 10.998)" fill="#1b1464"/>
    <g id="Group_112" data-name="Group 112" transform="translate(27.801 11.103)" clip-path="url(#clip-path-2)">
      <path id="Path_137" data-name="Path 137" d="M130.31,78.38h0" transform="translate(-110.853 -78.768)" fill="#232323"/>
      <path id="Path_138" data-name="Path 138" d="M128.45,78.43h0" transform="translate(-109.668 -78.8)" fill="#232323"/>
      <path id="Path_139" data-name="Path 139" d="M128.12,78.45h0" transform="translate(-109.458 -78.813)" fill="#232323"/>
      <path id="Path_140" data-name="Path 140" d="M131.24,78.37h0" transform="translate(-111.446 -78.762)" fill="#232323"/>
      <path id="Path_141" data-name="Path 141" d="M129.26,78.4h0" transform="translate(-110.184 -78.781)" fill="#232323"/>
      <path id="Path_142" data-name="Path 142" d="M111.592,154.24h0c-.08-.109-.156-.218-.232-.33.069.109.138.221.21.33" transform="translate(-98.776 -126.907)" fill="#232323"/>
      <path id="Path_143" data-name="Path 143" d="M132.7,77.42h0" transform="translate(-112.377 -78.156)" fill="#f7931e"/>
      <path id="Path_144" data-name="Path 144" d="M130.84,77.47h0" transform="translate(-111.191 -78.188)" fill="#f7931e"/>
      <path id="Path_145" data-name="Path 145" d="M130.51,77.49h0" transform="translate(-110.981 -78.201)" fill="#f7931e"/>
      <path id="Path_146" data-name="Path 146" d="M133.63,77.41h0" transform="translate(-112.969 -78.15)" fill="#f7931e"/>
      <path id="Path_147" data-name="Path 147" d="M131.65,77.44h0" transform="translate(-111.707 -78.169)" fill="#f7931e"/>
      <path id="Path_148" data-name="Path 148" d="M123.3,120.314a32.193,32.193,0,0,1,6.579,4.787,40.8,40.8,0,0,1,3.59-2.375,41.927,41.927,0,0,1,15.065-5.313c.025-.428.04-.86.04-1.3a21.208,21.208,0,0,0-3.405-11.554,39.166,39.166,0,0,0-5.527,1.951A37.945,37.945,0,0,0,123.3,120.292" transform="translate(-106.386 -95.454)" fill="url(#linear-gradient)"/>
      <path id="Path_149" data-name="Path 149" d="M122.916,85.174a40.617,40.617,0,0,1,7.315-5.708,21.553,21.553,0,0,0-9.066-2.056h-1.248A21.607,21.607,0,0,0,113.86,78.6a32.2,32.2,0,0,1,9.066,6.528" transform="translate(-100.369 -78.15)" fill="#f8bc1d"/>
      <path id="Path_150" data-name="Path 150" d="M98.136,149.883a28.976,28.976,0,0,0-10.205-6.118,29.926,29.926,0,0,0-13.32-1.4,21.458,21.458,0,0,0,14.825,18.089,40.712,40.712,0,0,1,8.7-10.571m-9.11-3.489c-.073-.109-.141-.221-.21-.33.076.112.152.221.232.33h-.022" transform="translate(-75.353 -119.409)" fill="#f8bd24"/>
      <path id="Path_151" data-name="Path 151" d="M88.609,118.825c.772.265,1.512.558,2.223.867a40.5,40.5,0,0,1,5.295-6.528A29.06,29.06,0,0,0,77.69,104.5a21.194,21.194,0,0,0-3.42,11.576c0,.392,0,.776.033,1.16a33,33,0,0,1,14.307,1.588" transform="translate(-75.137 -95.415)" fill="url(#linear-gradient-2)"/>
      <path id="Path_152" data-name="Path 152" d="M119,161.166a21.585,21.585,0,0,0,5.295.656,26.315,26.315,0,0,0,7-1.146A21.451,21.451,0,0,0,145.728,142.7a38.692,38.692,0,0,0-13.212,4.794A37.376,37.376,0,0,0,119,161.166" transform="translate(-103.645 -119.762)" fill="#f8bc1f"/>
      <path id="Path_153" data-name="Path 153" d="M100.163,94.4a40.49,40.49,0,0,1,4.091-4.878A29.013,29.013,0,0,0,94.7,82.24a21.585,21.585,0,0,0-8.747,6.89,32.146,32.146,0,0,1,7.819,1.929,31.732,31.732,0,0,1,6.394,3.329" transform="translate(-82.581 -81.228)" fill="#f8bc1d"/>
      <path id="Path_154" data-name="Path 154" d="M127.68,96.843a32.13,32.13,0,0,1,3.5,2.981,40.709,40.709,0,0,1,10.2-6.716,42.379,42.379,0,0,1,5.94-2.212,21.636,21.636,0,0,0-7.166-6.3A37.9,37.9,0,0,0,127.68,96.843" transform="translate(-109.177 -82.732)" fill="#f8bc1d"/>
      <path id="Path_155" data-name="Path 155" d="M113.99,153.28h.022c-.08-.109-.156-.218-.232-.33.069.109.138.221.21.33" transform="translate(-100.318 -126.295)" fill="#f7931e"/>
    </g>
    <text id="ersorize" transform="translate(105.733 69.18)" fill="#fff" font-size="119" font-family="BarlowCondensed-Regular, Barlow"><tspan x="0" y="0">ersorize</tspan></text>
    <text id="Embrace_Your_Uniqueness" data-name="Embrace Your Uniqueness" transform="translate(110.182 107.398)" fill="#f2ae27" font-size="36" font-family="BarlowCondensed-Regular, Barlow"><tspan x="0" y="0">Embrace Your Uniqueness</tspan></text>
  </g>
</svg>
