<svg xmlns="http://www.w3.org/2000/svg" width="36" height="36" viewBox="0 0 36 36">
  <g id="more-arrow-direction-button-pointer" transform="translate(-2.933 -2.934)">
    <circle id="Ellipse_322" data-name="Ellipse 322" cx="18" cy="18" r="18" transform="translate(2.933 2.934)" fill="#006df0"/>
    <path id="Path_2189" data-name="Path 2189" d="M20.934,3A17.934,17.934,0,0,0,8.253,33.616L33.615,8.253A17.878,17.878,0,0,0,20.934,3Z" transform="translate(0 0)" fill="#2488ff"/>
    <g id="Group_3571" data-name="Group 3571" transform="translate(11.039 18.461)">
      <circle id="Ellipse_323" data-name="Ellipse 323" cx="2" cy="2" r="2" transform="translate(7.894 0.474)" fill="#ffcd00"/>
      <ellipse id="Ellipse_324" data-name="Ellipse 324" cx="2.5" cy="2" rx="2.5" ry="2" transform="translate(14.894 0.474)" fill="#ffcd00"/>
      <ellipse id="Ellipse_325" data-name="Ellipse 325" cx="2.5" cy="2" rx="2.5" ry="2" transform="translate(-0.106 0.474)" fill="#ffcd00"/>
    </g>
    <path id="Path_2190" data-name="Path 2190" d="M29.6,7.286a.619.619,0,1,1-.048-1.237C29.98,6.017,30.413,6,30.84,6a.618.618,0,0,1,0,1.237c-.395,0-.794.015-1.188.047Z" transform="translate(-9.906 -1.145)" fill="#f1f2f2"/>
    <path id="Path_2191" data-name="Path 2191" d="M6.618,22.975A.618.618,0,0,1,6,22.357,16.05,16.05,0,0,1,18.22,6.746a.619.619,0,0,1,.3,1.2A14.817,14.817,0,0,0,7.237,22.357.618.618,0,0,1,6.618,22.975Z" transform="translate(-1.145 -1.422)" fill="#f1f2f2"/>
  </g>
</svg>
