<svg id="notes_1_" data-name="notes (1)" xmlns="http://www.w3.org/2000/svg" width="30.814" height="30.814" viewBox="0 0 30.814 30.814">
  <path id="Path_2168" data-name="Path 2168" d="M23.592,32.768v2.708l-1.806,1.806H1.806L0,35.477V32.768A2.756,2.756,0,0,1,2.708,30H20.884A2.756,2.756,0,0,1,23.592,32.768Z" transform="translate(0 -28.194)" fill="#4d5a68"/>
  <path id="Path_2169" data-name="Path 2169" d="M207.8,32.768v2.708l-1.806,1.806H196V30h9.088A2.757,2.757,0,0,1,207.8,32.768Z" transform="translate(-184.204 -28.194)" fill="#304653"/>
  <path id="Path_2170" data-name="Path 2170" d="M23.592,121v20.763a2.757,2.757,0,0,1-2.708,2.768H2.708A2.757,2.757,0,0,1,0,141.763V121Z" transform="translate(0 -113.718)" fill="#ffca42"/>
  <path id="Path_2171" data-name="Path 2171" d="M207.8,121v20.763a2.757,2.757,0,0,1-2.708,2.768H196V121Z" transform="translate(-184.204 -113.718)" fill="#ffaf3e"/>
  <path id="Path_2172" data-name="Path 2172" d="M60.9,5.477a.9.9,0,0,1-.9-.9V.9a.9.9,0,0,1,1.806,0V4.574A.9.9,0,0,1,60.9,5.477Z" transform="translate(-56.389)" fill="#cad4e4"/>
  <path id="Path_2173" data-name="Path 2173" d="M121.9,5.477a.9.9,0,0,1-.9-.9V.9a.9.9,0,1,1,1.806,0V4.574A.9.9,0,0,1,121.9,5.477Z" transform="translate(-113.718)" fill="#cad4e4"/>
  <path id="Path_2174" data-name="Path 2174" d="M182.805.9V4.574a.9.9,0,0,1-1.806,0V.9a.9.9,0,0,1,1.806,0Z" transform="translate(-170.107)" fill="#cad4e4"/>
  <path id="Path_2175" data-name="Path 2175" d="M242.9,5.477a.9.9,0,0,1-.9-.9V.9a.9.9,0,0,1,1.806,0V4.574A.9.9,0,0,1,242.9,5.477Z" transform="translate(-227.436)" fill="#adb5cc"/>
  <path id="Path_2176" data-name="Path 2176" d="M302.9,5.477a.9.9,0,0,1-.9-.9V.9a.9.9,0,0,1,1.806,0V4.574A.9.9,0,0,1,302.9,5.477Z" transform="translate(-283.825)" fill="#adb5cc"/>
  <path id="Path_2177" data-name="Path 2177" d="M69.088,391.9a.894.894,0,0,1-.9.9H60.9a.9.9,0,0,1,0-1.806h7.282A.894.894,0,0,1,69.088,391.9Z" transform="translate(-56.389 -367.468)" fill="#dd864d"/>
  <path id="Path_2178" data-name="Path 2178" d="M66.379,302.805H60.9a.9.9,0,0,1,0-1.806h5.477a.9.9,0,1,1,0,1.806Z" transform="translate(-56.389 -282.885)" fill="#dd864d"/>
  <path id="Path_2179" data-name="Path 2179" d="M64.574,212.806H60.9a.9.9,0,0,1,0-1.806h3.671a.9.9,0,0,1,0,1.806Z" transform="translate(-56.389 -198.301)" fill="#dd864d"/>
  <g id="Group_3570" data-name="Group 3570" transform="translate(14.56 1.636)">
    <g id="Group_3569" data-name="Group 3569" transform="translate(10.11 5.837)">
      <path id="Path_2180" data-name="Path 2180" d="M409.91,136.209a12.77,12.77,0,0,1,4.062-8.293.9.9,0,0,0-.2-1.409l-1.125-.649a.9.9,0,1,1,.9-1.564l1.125.649a2.708,2.708,0,0,1,.593,4.228,10.608,10.608,0,0,0-3.557,7.146.9.9,0,1,1-1.8-.108Z" transform="translate(-409.909 -124.173)" fill="#304653"/>
    </g>
    <path id="Path_2181" data-name="Path 2181" d="M411.546,31.255,410.192,33.6l-2.341.733-1.814-1.047-.536-2.394,1.354-2.345a2.708,2.708,0,0,1,4.691,2.708Z" transform="translate(-395.656 -27.191)" fill="#4d5a68"/>
    <path id="Path_2182" data-name="Path 2182" d="M430.38,40.026l-.907-.524,3.611-6.254a2.7,2.7,0,0,1,.991,3.7l-1.354,2.345Z" transform="translate(-418.186 -32.883)" fill="#304653"/>
    <path id="Path_2183" data-name="Path 2183" d="M266.85,106.266l-4.847-2.8a13.748,13.748,0,0,1,2.861-7.23c.279-.339,5.133-6.543,5.36-6.829l.415-.719L275.33,91.4l-.406.7c-.027.047-3.13,7.8-3.243,8.072A13.747,13.747,0,0,1,266.85,106.266Z" transform="translate(-260.795 -84.989)" fill="#e9336d"/>
    <path id="Path_2184" data-name="Path 2184" d="M304.7,127.412l-2.424-1.4,8.558-14.823,2.345,1.354-.406.7c-.027.047-3.13,7.8-3.243,8.072A13.748,13.748,0,0,1,304.7,127.412Z" transform="translate(-298.641 -106.135)" fill="#b12e65"/>
    <path id="Path_2185" data-name="Path 2185" d="M246.548,322.729a2.9,2.9,0,0,0-3.08.1l-.337.223c-.01.161-.051.3-.06.466l-.23,3.829-.794,1.376a.9.9,0,1,0,1.564.9l.794-1.376,3.2-2.113c.135-.089.238-.2.373-.285l.024-.4A2.9,2.9,0,0,0,246.548,322.729Z" transform="translate(-241.923 -304.57)" fill="#cad4e4"/>
    <path id="Path_2186" data-name="Path 2186" d="M253.644,328.909l-2.365,4.1h0l-1.806,3.127a.894.894,0,0,0,1.233-.33l.794-1.376,3.2-2.113c.135-.089.238-.2.373-.285l.024-.4A2.9,2.9,0,0,0,253.644,328.909Z" transform="translate(-249.019 -310.751)" fill="#adb5cc"/>
  </g>
  <path id="Path_2187" data-name="Path 2187" d="M196,5.477V0a.894.894,0,0,1,.9.9V4.574A.894.894,0,0,1,196,5.477Z" transform="translate(-184.204)" fill="#adb5cc"/>
  <path id="Path_2188" data-name="Path 2188" d="M196.9,391.9a.894.894,0,0,1-.9.9V391A.894.894,0,0,1,196.9,391.9Z" transform="translate(-184.204 -367.468)" fill="#d36836"/>
</svg>
