<svg xmlns="http://www.w3.org/2000/svg" width="24.64" height="31.067" viewBox="0 0 24.64 31.067">
  <g id="pdf" transform="translate(-72 -24)">
    <path id="Path_2151" data-name="Path 2151" d="M93.426,55.067H75.214A3.214,3.214,0,0,1,72,51.854V27.214A3.214,3.214,0,0,1,75.214,24h15l6.428,6.428V51.854A3.214,3.214,0,0,1,93.426,55.067Z" fill="#cfd2fc"/>
    <path id="Path_2152" data-name="Path 2152" d="M136,136h5.356v6.428H136Z" transform="translate(-59.715 -104.501)" fill="#5153ff"/>
    <path id="Path_2153" data-name="Path 2153" d="M72,360H96.64v5.356a3.214,3.214,0,0,1-3.214,3.214H75.214A3.214,3.214,0,0,1,72,365.356Z" transform="translate(0 -313.503)" fill="#5153ff"/>
    <g id="Group_3568" data-name="Group 3568" transform="translate(75.75 24)">
      <path id="Path_2154" data-name="Path 2154" d="M350.428,30.428h-3.214A3.214,3.214,0,0,1,344,27.214V24Z" transform="translate(-329.538 -24)" fill="#8690fa"/>
      <path id="Path_2155" data-name="Path 2155" d="M249.106,161.071h-8.57a.536.536,0,1,1,0-1.071h8.57a.536.536,0,0,1,0,1.071Z" transform="translate(-232.501 -150.894)" fill="#8690fa"/>
      <path id="Path_2156" data-name="Path 2156" d="M242.678,193.071h-2.143a.536.536,0,1,1,0-1.071h2.143a.536.536,0,1,1,0,1.071Z" transform="translate(-232.501 -180.751)" fill="#8690fa"/>
      <path id="Path_2157" data-name="Path 2157" d="M249.106,225.071h-8.57a.536.536,0,1,1,0-1.071h8.57a.536.536,0,0,1,0,1.071Z" transform="translate(-232.501 -210.609)" fill="#8690fa"/>
      <path id="Path_2158" data-name="Path 2158" d="M140.855,257.071h-12.32a.536.536,0,0,1,0-1.071h12.32a.536.536,0,0,1,0,1.071Z" transform="translate(-128 -240.466)" fill="#8690fa"/>
      <path id="Path_2159" data-name="Path 2159" d="M308.821,193.071h-4.285a.536.536,0,0,1,0-1.071h4.285a.536.536,0,0,1,0,1.071Z" transform="translate(-292.216 -180.751)" fill="#8690fa"/>
      <path id="Path_2160" data-name="Path 2160" d="M346.143,257.071h-1.607a.536.536,0,0,1,0-1.071h1.607a.536.536,0,0,1,0,1.071Z" transform="translate(-329.538 -240.466)" fill="#8690fa"/>
      <path id="Path_2161" data-name="Path 2161" d="M131.75,289.071h-3.214a.536.536,0,0,1,0-1.071h3.214a.536.536,0,0,1,0,1.071Z" transform="translate(-128 -270.324)" fill="#8690fa"/>
      <path id="Path_2162" data-name="Path 2162" d="M213.892,289.071h-5.356a.536.536,0,0,1,0-1.071h5.356a.536.536,0,0,1,0,1.071Z" transform="translate(-202.644 -270.324)" fill="#8690fa"/>
      <path id="Path_2163" data-name="Path 2163" d="M323.75,289.071h-3.214a.536.536,0,0,1,0-1.071h3.214a.536.536,0,0,1,0,1.071Z" transform="translate(-307.145 -270.324)" fill="#8690fa"/>
      <path id="Path_2164" data-name="Path 2164" d="M244.821,129.071h-4.285a.536.536,0,1,1,0-1.071h4.285a.536.536,0,0,1,0,1.071Z" transform="translate(-232.501 -121.037)" fill="#8690fa"/>
    </g>
    <path id="Path_2165" data-name="Path 2165" d="M298.678,384h-2.143a.536.536,0,0,0-.536.536v4.285a.536.536,0,0,0,1.071,0v-1.607h.536a.536.536,0,0,0,0-1.071h-.536v-1.071h1.607a.536.536,0,0,0,0-1.071Z" transform="translate(-209.002 -335.896)" fill="#fff"/>
    <path id="Path_2166" data-name="Path 2166" d="M169.607,384h-1.071a.536.536,0,0,0-.536.536v4.285a.536.536,0,0,0,1.071,0v-1.607h.536a1.607,1.607,0,1,0,0-3.214Zm0,2.143h-.536v-1.071h.536a.536.536,0,0,1,0,1.071Z" transform="translate(-89.572 -335.896)" fill="#fff"/>
    <path id="Path_2167" data-name="Path 2167" d="M232.536,384a.536.536,0,0,0-.536.536v4.285a.536.536,0,0,0,.536.536,2.678,2.678,0,1,0,0-5.356Zm.536,4.193v-3.03a1.607,1.607,0,0,1,0,3.03Z" transform="translate(-149.287 -335.896)" fill="#fff"/>
  </g>
</svg>
