<svg id="play-button" xmlns="http://www.w3.org/2000/svg" width="29.501" height="29.501" viewBox="0 0 29.501 29.501">
  <g id="Group_844" data-name="Group 844">
    <g id="Group_843" data-name="Group 843">
      <path id="Path_1921" data-name="Path 1921" d="M14.751,0A14.751,14.751,0,1,0,29.5,14.751,14.751,14.751,0,0,0,14.751,0Zm0,27.394A12.643,12.643,0,1,1,27.394,14.751,12.643,12.643,0,0,1,14.751,27.394Z" fill="#f1f1f1"/>
    </g>
  </g>
  <g id="Group_846" data-name="Group 846" transform="translate(10.536 9.482)">
    <g id="Group_845" data-name="Group 845">
      <path id="Path_1922" data-name="Path 1922" d="M181.093,158.386a1.054,1.054,0,0,0-.473-.473l-8.429-4.214a1.054,1.054,0,0,0-1.525.943v8.429a1.054,1.054,0,0,0,1.525.943l8.429-4.214A1.054,1.054,0,0,0,181.093,158.386Zm-8.319,2.98v-5.019l5.019,2.51Z" transform="translate(-170.666 -153.587)" fill="#f1f1f1"/>
    </g>
  </g>
</svg>
