<svg xmlns="http://www.w3.org/2000/svg" width="32.038" height="24.732" viewBox="0 0 32.038 24.732">
  <g id="sound" transform="translate(0 -58.38)">
    <path id="Path_2135" data-name="Path 2135" d="M9.918,174.872h-7.1A2.819,2.819,0,0,1,0,172.056v-5.973a2.819,2.819,0,0,1,2.816-2.816h7.1a.939.939,0,0,1,.939.939v9.728A.939.939,0,0,1,9.918,174.872Z" transform="translate(0 -98.324)" fill="#ffcf2c"/>
    <path id="Path_2136" data-name="Path 2136" d="M0,256v2.987A2.819,2.819,0,0,0,2.816,261.8h7.1a.939.939,0,0,0,.939-.939V256Z" transform="translate(0 -185.252)" fill="#ffb500"/>
    <path id="Path_2137" data-name="Path 2137" d="M162.174,58.473a.939.939,0,0,0-.993.113l-7.938,6.357V76.549l7.938,6.357a.939.939,0,0,0,1.525-.733V59.319A.939.939,0,0,0,162.174,58.473Z" transform="translate(-143.653 0)" fill="#37a8e5"/>
    <path id="Path_2138" data-name="Path 2138" d="M153.242,256v5.8l7.938,6.357a.939.939,0,0,0,1.525-.733V256Z" transform="translate(-143.653 -185.252)" fill="#1a82c7"/>
    <g id="Group_3562" data-name="Group 3562" transform="translate(20.9 60.49)">
      <path id="Path_2139" data-name="Path 2139" d="M444.05,112.6a.939.939,0,0,1-.818-1.4,18.122,18.122,0,0,0,0-17.716.939.939,0,0,1,1.637-.919,20,20,0,0,1,0,19.554A.939.939,0,0,1,444.05,112.6Z" transform="translate(-436.284 -92.09)" fill="#a3efff"/>
      <path id="Path_2140" data-name="Path 2140" d="M389.84,149.978a.939.939,0,0,1-.838-1.36,13.883,13.883,0,0,0,0-12.445.939.939,0,1,1,1.677-.843,15.761,15.761,0,0,1,0,14.131A.939.939,0,0,1,389.84,149.978Z" transform="translate(-385.466 -132.139)" fill="#a3efff"/>
      <path id="Path_2141" data-name="Path 2141" d="M334.932,187.837a.939.939,0,0,1-.871-1.288,9.686,9.686,0,0,0,0-7.174.939.939,0,1,1,1.743-.7,11.564,11.564,0,0,1,0,8.571A.939.939,0,0,1,334.932,187.837Z" transform="translate(-333.993 -172.705)" fill="#a3efff"/>
    </g>
    <path id="Path_2142" data-name="Path 2142" d="M445.545,256a18.133,18.133,0,0,1-2.313,8.858.939.939,0,1,0,1.637.919A20.015,20.015,0,0,0,447.422,256h-1.877Z" transform="translate(-415.384 -185.251)" fill="#6ad9eb"/>
    <path id="Path_2143" data-name="Path 2143" d="M390.474,256A13.733,13.733,0,0,1,389,262.22a.939.939,0,1,0,1.677.843A15.593,15.593,0,0,0,392.351,256Z" transform="translate(-364.565 -185.252)" fill="#6ad9eb"/>
    <path id="Path_2144" data-name="Path 2144" d="M334.749,256a9.6,9.6,0,0,1-.689,3.587.939.939,0,1,0,1.743.7,11.472,11.472,0,0,0,.824-4.285h-1.877Z" transform="translate(-313.092 -185.252)" fill="#6ad9eb"/>
  </g>
</svg>
