<svg xmlns="http://www.w3.org/2000/svg" width="31.016" height="20.905" viewBox="0 0 31.016 20.905">
  <g id="video-player" transform="translate(0 -81.013)">
    <path id="Path_2145" data-name="Path 2145" d="M322.266,123.6l-10.092-6.488v-3.446l9.662-6.211.43-.276a.936.936,0,0,1,1.442.787v13.911C323.708,123.463,322.889,124,322.266,123.6Z" transform="translate(-292.692 -24.389)" fill="#d16161"/>
    <path id="Path_2146" data-name="Path 2146" d="M322.266,260.1l-10.092-6.488v1.872l10.092,6.488a.936.936,0,0,0,1.442-.787v-1.872A.936.936,0,0,1,322.266,260.1Z" transform="translate(-292.692 -161.827)" fill="#ae3244"/>
    <path id="Path_2147" data-name="Path 2147" d="M37.391,82.885a1.878,1.878,0,0,0-1.872-1.872H15.936a1.856,1.856,0,0,0-.624.108L15,100.982l22.283-.312a1.854,1.854,0,0,0,.108-.624Z" transform="translate(-14.064)" fill="#ff8086"/>
    <path id="Path_2148" data-name="Path 2148" d="M1.248,101.356V82.744A1.879,1.879,0,0,0,0,84.508v17.16a1.878,1.878,0,0,0,1.872,1.872H21.455a1.879,1.879,0,0,0,1.764-1.248H2.184A.939.939,0,0,1,1.248,101.356Z" transform="translate(0 -1.623)" fill="#d16161"/>
    <path id="Path_2149" data-name="Path 2149" d="M134.054,156.287l-8.093-5.2a.958.958,0,0,0-.194-.1l-.624,11.578a.437.437,0,0,0,.673.367l8.664-5.792A.929.929,0,0,0,134.054,156.287Z" transform="translate(-117.333 -65.609)" fill="#f5fcff"/>
    <path id="Path_2150" data-name="Path 2150" d="M116.391,161.13V150.176a.937.937,0,0,0-1.248.883v10.4a.936.936,0,0,0,1.442.787l8.093-5.2a.925.925,0,0,0,.426-.72l-8.04,5.168A.437.437,0,0,1,116.391,161.13Z" transform="translate(-107.957 -64.796)" fill="#dce6eb"/>
  </g>
</svg>
