<svg xmlns="http://www.w3.org/2000/svg" width="12.689" height="8.449" viewBox="0 0 12.689 8.449">
  <g id="wireless-symbol" transform="translate(0 -7.996)">
    <g id="Group_3561" data-name="Group 3561" transform="translate(0 7.996)">
      <path id="Path_2133" data-name="Path 2133" d="M13.446,19.371a4.319,4.319,0,0,0-3.682,2.047.663.663,0,1,0,1.125.7,3.009,3.009,0,0,1,5.114,0,.663.663,0,1,0,1.124-.7A4.318,4.318,0,0,0,13.446,19.371Z" transform="translate(-7.101 -16.355)" fill="#f2ae27"/>
      <path id="Path_2134" data-name="Path 2134" d="M12.589,11.463a7.356,7.356,0,0,0-12.488,0,.663.663,0,0,0,1.125.7,6.031,6.031,0,0,1,10.239,0,.663.663,0,0,0,1.125-.7Z" transform="translate(0 -7.996)" fill="#f2ae27"/>
      <circle id="Ellipse_321" data-name="Ellipse 321" cx="1.091" cy="1.091" r="1.091" transform="translate(5.254 6.267)" fill="#f2ae27"/>
    </g>
  </g>
</svg>
